<svg width="40" height="38" viewBox="0 0 40 38" fill="none" xmlns="http://www.w3.org/2000/svg">
<path d="M37.2385 11.3964C38.5936 13.9623 39.3033 16.8215 39.3058 19.7252C39.2664 24.3892 37.4678 28.8653 34.2717 32.2532C31.0756 35.641 26.7191 37.6894 22.0784 37.9862V31.6826C23.5651 31.3427 24.8748 30.4655 25.7574 29.2184C26.64 27.9713 27.0337 26.4417 26.8632 24.922C26.6927 23.4022 25.97 21.9986 24.8332 20.9794C23.6963 19.9603 22.225 19.3969 20.7002 19.3969C19.1755 19.3969 17.7041 19.9603 16.5673 20.9794C15.4304 21.9986 14.7078 23.4022 14.5373 24.922C14.3668 26.4417 14.7604 27.9713 15.6431 29.2184C16.5257 30.4655 17.8354 31.3427 19.322 31.6826V38C14.6814 37.7032 10.3248 35.6549 7.12873 32.267C3.93263 28.8791 2.13403 24.403 2.09469 19.739C2.07459 17.0638 2.65391 14.4182 3.78986 11.9977C2.86287 11.6052 2.04502 10.9924 1.40687 10.2121C0.768714 9.43177 0.329429 8.50743 0.126913 7.51884C-0.0756029 6.53024 -0.0352668 5.50706 0.244441 4.53759C0.524149 3.56812 1.03483 2.68147 1.73241 1.95414C2.43 1.22681 3.29355 0.680649 4.24854 0.36278C5.20353 0.0449107 6.22129 -0.0351203 7.214 0.129592C8.20672 0.294305 9.14457 0.698814 9.94663 1.30822C10.7487 1.91762 11.3909 2.71362 11.8178 3.62753C14.365 2.27879 17.1854 1.53046 20.0643 1.43943C22.9433 1.34841 25.805 1.91709 28.4319 3.10223C28.9001 2.29159 29.5448 1.5975 30.3179 1.07178C31.091 0.546049 31.9725 0.202261 32.8966 0.0660753C33.8207 -0.0701105 34.7636 0.00482371 35.6548 0.285284C36.5459 0.565744 37.3625 1.04448 38.0434 1.68577C38.7243 2.32706 39.252 3.11433 39.5871 3.98881C39.9222 4.86329 40.0561 5.8024 39.9787 6.73604C39.9013 7.66967 39.6147 8.57372 39.1402 9.38069C38.6657 10.1877 38.0156 10.8767 37.2385 11.3964Z" fill="#BABABA"/>
</svg>
