<svg width="140" height="140" viewBox="0 0 140 140" fill="none" xmlns="http://www.w3.org/2000/svg">
<path d="M105 14.4375C94.9375 8.09375 82.9063 4.375 70 4.375C57.0937 4.375 45.0625 8.09375 35 14.4375V125.344C45.0625 131.687 57.0937 135.406 70 135.406C82.9063 135.406 94.9375 131.687 105 125.344V14.4375Z" fill="#F9F9F9"/>
<path d="M105 14.4375V125.344C123.375 113.969 135.625 92.9687 135.625 69.7812C135.625 46.5937 123.375 26.0313 105 14.4375M35 14.4375C16.625 26.0313 4.375 47.0312 4.375 70C4.375 92.9687 16.625 113.969 35 125.563V14.4375V14.4375ZM93.8438 69.125C92.9688 68.6875 92.75 67.8125 92.9688 67.375L95.1562 59.5L87.5 61.0312C87.2812 61.0312 86.4063 61.0313 86.1875 59.5L85.5312 56.875L80.2813 63C80.2813 63 76.7812 66.7187 77.875 61.0312L80.0625 49L75.9063 51.1875C75.6875 51.1875 74.8125 51.4062 73.7188 49.2187L70 41.5625L66.0625 48.7812C64.9688 50.9687 64.0938 50.75 63.875 50.75L59.7187 48.5625L61.9062 60.5938C63 66.2813 59.5 62.5625 59.5 62.5625L54.25 56.4375L53.5938 59.0625C53.1562 60.5937 52.5 60.5938 52.2812 60.5938L44.625 59.0625L46.8125 66.9375C46.8125 67.5938 46.8125 68.25 45.9375 68.6875L43.75 70C43.75 70 52.5 77 55.3437 79.4062C56 79.8437 57.3125 81.1562 56.875 82.6875L55.7812 85.75L67.8125 84C68.4688 84 69.7812 84 69.5625 85.9688L68.9062 98.4375H71.0938L70.4375 85.9688C70.4375 84 71.75 84 72.1875 84L84.2188 85.75L83.125 82.6875C82.6875 81.1562 84 79.8437 84.6563 79.4062C87.5 77 96.25 70 96.25 70L93.8438 69.125" fill="#ED4C5C"/>
</svg>
