<svg width="140" height="140" viewBox="0 0 140 140" fill="none" xmlns="http://www.w3.org/2000/svg">
<path d="M133.219 87.5C134.75 82.0312 135.625 76.125 135.625 70C135.625 63.875 134.75 57.9688 133.219 52.5H69.3438L32.375 16.1875C23.625 22.3125 16.4062 30.625 11.375 40.25L41.5625 70L11.5938 99.75C16.4063 109.375 23.625 117.687 32.5937 123.812L69.3438 87.5H133.219Z" fill="#699635"/>
<path d="M7.65625 49.2188C5.46875 55.7812 4.375 62.7813 4.375 70C4.375 77.2187 5.46875 84.2188 7.65625 90.7812L28.6563 70L7.65625 49.2188Z" fill="#3E4347"/>
<path d="M40.0312 128.406C49 133 59.2813 135.625 70 135.625C96.9063 135.625 120.094 119.437 130.156 96.0312H73.0625L40.0312 128.406Z" fill="#428BC1"/>
<path d="M130.156 43.9688C120.094 20.5625 96.9063 4.375 70 4.375C59.2813 4.375 49 7 40.0312 11.5938L73.0625 43.9688H130.156Z" fill="#ED4C5C"/>
<path d="M132.344 49.6563C131.688 47.6875 131.031 45.7188 130.156 43.9688H73.0625L40.0312 11.5938C38.5 12.25 37.1875 13.125 35.6562 14C34.5625 14.6562 33.4688 15.5312 32.375 16.1875L69.3438 52.5H133.219C133 51.625 132.781 50.5313 132.344 49.6563Z" fill="white"/>
<path d="M11.5938 40.25C11.375 40.6875 11.1563 41.125 10.9375 41.7813C9.84375 44.1875 8.75 46.5938 7.875 49.2188L28.875 70L7.875 90.7813C8.75 93.4063 9.625 95.8125 10.9375 98.2188C11.1563 98.6563 11.375 99.0937 11.5938 99.75L41.5625 70L11.5938 40.25Z" fill="#FFCE31"/>
<path d="M69.3438 87.5L32.375 123.812C33.0313 124.25 33.9062 124.906 34.5625 125.344C36.3125 126.437 38.0625 127.531 40.0312 128.406L73.0625 96.0313H130.156C131.031 93.8438 131.906 91.6562 132.781 89.25C133 88.5937 133 88.1563 133.219 87.5H69.3438" fill="white"/>
</svg>
