<svg width="140" height="140" viewBox="0 0 140 140" fill="none" xmlns="http://www.w3.org/2000/svg">
<path d="M70 4.375C41.3437 4.375 17.0625 22.5313 8.09375 48.125H131.906C122.937 22.5313 98.6562 4.375 70 4.375Z" fill="#C94747"/>
<path d="M70 135.625C98.6562 135.625 122.937 117.469 131.906 91.875H8.09375C17.0625 117.469 41.3437 135.625 70 135.625Z" fill="#699635"/>
<path d="M8.09375 48.125C5.6875 54.9062 4.375 62.3438 4.375 70C4.375 77.6562 5.6875 85.0938 8.09375 91.875H131.906C134.312 85.0938 135.625 77.6562 135.625 70C135.625 62.3438 134.312 54.9062 131.906 48.125H8.09375Z" fill="#FFCE31"/>
<path d="M70 81.5937L83.5625 91.875L78.3125 75.25L91.875 64.5312H75.25L70 48.125L64.9688 64.5312H48.125L61.6875 75.25L56.4375 91.875L70 81.5937Z" fill="#3E4347"/>
</svg>
