<svg width="140" height="140" viewBox="0 0 140 140" fill="none" xmlns="http://www.w3.org/2000/svg">
<path d="M4.375 70C4.375 98.6562 22.75 122.937 48.125 131.906V8.09375C22.75 17.0625 4.375 41.3437 4.375 70ZM135.625 70C135.625 41.3437 117.469 17.0625 91.875 8.09375V131.906C117.469 122.937 135.625 98.6562 135.625 70Z" fill="#83BF4F"/>
<path d="M48.125 131.906C54.9062 134.312 62.3438 135.625 70 135.625C77.6562 135.625 85.0938 134.312 91.875 131.906V8.09375C85.0938 5.6875 77.6562 4.375 70 4.375C62.3438 4.375 54.9062 5.6875 48.125 8.09375V131.906V131.906Z" fill="#F9F9F9"/>
</svg>
